<mxfile host="app.diagrams.net" modified="2023-10-16T13:35:35.347Z" agent="Mozilla/5.0 (Windows NT 10.0; Win64; x64) AppleWebKit/537.36 (KHTML, like Gecko) Chrome/118.0.0.0 Safari/537.36" etag="KPxHjte2Xv43bLC4xz8N" version="22.0.4" type="github">
  <diagram name="PÃ¡gina-1" id="oaKjVIy3qPdRM4HPLb7p">
    <mxGraphModel dx="2954" dy="1110" grid="1" gridSize="10" guides="1" tooltips="1" connect="1" arrows="1" fold="1" page="1" pageScale="1" pageWidth="827" pageHeight="1169" math="0" shadow="0">
      <root>
        <mxCell id="0" />
        <mxCell id="1" parent="0" />
        <mxCell id="HPkQtVepFmMt05M2Ug2A-1" value="" style="fontColor=#0066CC;verticalAlign=top;verticalLabelPosition=bottom;labelPosition=center;align=center;html=1;outlineConnect=0;fillColor=#CCCCCC;strokeColor=#6881B3;gradientColor=none;gradientDirection=north;strokeWidth=2;shape=mxgraph.networks.pc;" parent="1" vertex="1">
          <mxGeometry x="314" y="680" width="100" height="70" as="geometry" />
        </mxCell>
        <mxCell id="HPkQtVepFmMt05M2Ug2A-2" value="" style="image;html=1;image=img/lib/clip_art/networking/Firewall-page1_128x128.png" parent="1" vertex="1">
          <mxGeometry x="324" y="460" width="80" height="80" as="geometry" />
        </mxCell>
        <mxCell id="HPkQtVepFmMt05M2Ug2A-3" value="" style="image;aspect=fixed;perimeter=ellipsePerimeter;html=1;align=center;shadow=0;dashed=0;spacingTop=3;image=img/lib/active_directory/web_server.svg;" parent="1" vertex="1">
          <mxGeometry x="324" y="270" width="80" height="100" as="geometry" />
        </mxCell>
        <mxCell id="HPkQtVepFmMt05M2Ug2A-5" value="" style="endArrow=none;html=1;rounded=0;" parent="1" edge="1">
          <mxGeometry width="50" height="50" relative="1" as="geometry">
            <mxPoint x="363.5" y="460" as="sourcePoint" />
            <mxPoint x="363.5" y="370" as="targetPoint" />
          </mxGeometry>
        </mxCell>
        <mxCell id="HPkQtVepFmMt05M2Ug2A-6" value="" style="endArrow=none;html=1;rounded=0;" parent="1" edge="1">
          <mxGeometry width="50" height="50" relative="1" as="geometry">
            <mxPoint x="363.5" y="670" as="sourcePoint" />
            <mxPoint x="363.5" y="540" as="targetPoint" />
          </mxGeometry>
        </mxCell>
        <mxCell id="QtfLssMh8EfMtyEBM14M-1" value="" style="image;aspect=fixed;perimeter=ellipsePerimeter;html=1;align=center;shadow=0;dashed=0;spacingTop=3;image=img/lib/active_directory/internet_cloud.svg;" vertex="1" parent="1">
          <mxGeometry x="299.5" y="29.999999999999986" width="129" height="81.27" as="geometry" />
        </mxCell>
        <mxCell id="QtfLssMh8EfMtyEBM14M-2" value="" style="endArrow=none;html=1;rounded=0;exitX=0.45;exitY=0;exitDx=0;exitDy=0;exitPerimeter=0;entryX=0.466;entryY=1.029;entryDx=0;entryDy=0;entryPerimeter=0;" edge="1" parent="1" source="HPkQtVepFmMt05M2Ug2A-3" target="QtfLssMh8EfMtyEBM14M-1">
          <mxGeometry width="50" height="50" relative="1" as="geometry">
            <mxPoint x="363.5" y="270" as="sourcePoint" />
            <mxPoint x="360" y="120" as="targetPoint" />
          </mxGeometry>
        </mxCell>
        <mxCell id="QtfLssMh8EfMtyEBM14M-3" value="Engine X&amp;nbsp;" style="text;html=1;align=center;verticalAlign=middle;resizable=0;points=[];autosize=1;strokeColor=none;fillColor=none;" vertex="1" parent="1">
          <mxGeometry x="350" y="248" width="80" height="30" as="geometry" />
        </mxCell>
        <mxCell id="QtfLssMh8EfMtyEBM14M-4" value="WEB Server" style="text;html=1;align=center;verticalAlign=middle;resizable=0;points=[];autosize=1;strokeColor=none;fillColor=none;" vertex="1" parent="1">
          <mxGeometry x="260" y="248" width="90" height="30" as="geometry" />
        </mxCell>
        <mxCell id="QtfLssMh8EfMtyEBM14M-5" value="internet" style="text;html=1;align=center;verticalAlign=middle;resizable=0;points=[];autosize=1;strokeColor=none;fillColor=none;" vertex="1" parent="1">
          <mxGeometry x="414" y="30" width="60" height="30" as="geometry" />
        </mxCell>
        <mxCell id="QtfLssMh8EfMtyEBM14M-6" value="PfSense" style="text;html=1;align=center;verticalAlign=middle;resizable=0;points=[];autosize=1;strokeColor=none;fillColor=none;" vertex="1" parent="1">
          <mxGeometry x="385" y="448" width="70" height="30" as="geometry" />
        </mxCell>
        <mxCell id="QtfLssMh8EfMtyEBM14M-7" value="Windows 10" style="text;html=1;align=center;verticalAlign=middle;resizable=0;points=[];autosize=1;strokeColor=none;fillColor=none;" vertex="1" parent="1">
          <mxGeometry x="319" y="760" width="90" height="30" as="geometry" />
        </mxCell>
      </root>
    </mxGraphModel>
  </diagram>
</mxfile>
